<?xml version="1.0" encoding="utf-8"?>
<!-- Generator: Adobe Illustrator 16.0.0, SVG Export Plug-In . SVG Version: 6.00 Build 0)  -->
<!DOCTYPE svg PUBLIC "-//W3C//DTD SVG 1.1//EN" "http://www.w3.org/Graphics/SVG/1.1/DTD/svg11.dtd">
<svg xmlns="http://www.w3.org/2000/svg" xmlns:xlink="http://www.w3.org/1999/xlink" version="1.1" id="Layer_1" x="0px" y="0px" width="1000px" height="1000px" viewBox="0 0 1000 1000" xml:space="preserve">
<rect x="-2" y="-1" fill="none" width="1000" height="1000"/>
<g>
	<g opacity="0.3">
		<g>
			<path fill="#FFFFFF" d="M810.632,445.237l-25.968-0.007c-5.259,0-9.577-4.331-9.577-9.606v-12.365     c-3.811-0.758-7.621-1.732-11.354-2.89l-6.536,11.228c-1.685,2.967-4.878,4.803-8.268,4.803c-1.678,0-3.35-0.452-4.813-1.292     l-22.478-12.969c-2.203-1.244-3.812-3.312-4.478-5.811c-0.658-2.458-0.314-5.049,0.967-7.312l6.188-10.695     c-2.901-2.523-5.729-5.271-8.416-8.176l-11.251,6.486c-1.47,0.841-3.104,1.249-4.782,1.249c-3.422,0-6.616-1.833-8.342-4.757     l-12.969-22.491c-1.267-2.219-1.618-4.807-0.955-7.26c0.687-2.502,2.238-4.564,4.5-5.856l10.686-6.178     c-1.27-3.674-2.335-7.477-3.191-11.299h-12.96c-5.294,0-9.62-4.334-9.62-9.612v-25.931c0-5.28,4.326-9.616,9.62-9.616h12.359     c0.759-3.83,1.729-7.642,2.889-11.366l-11.234-6.487c-2.236-1.289-3.812-3.354-4.479-5.856c-0.669-2.458-0.312-5.05,0.935-7.268     l12.972-22.435c1.764-2.975,4.966-4.808,8.382-4.808c1.675,0,3.34,0.404,4.778,1.241l10.72,6.185     c2.505-2.849,5.247-5.663,8.157-8.344l-6.479-11.273c-1.303-2.223-1.624-4.82-0.954-7.326c0.661-2.453,2.243-4.512,4.468-5.797     l22.438-12.97c1.475-0.844,3.146-1.295,4.825-1.295c3.439,0,6.609,1.834,8.342,4.804l6.151,10.686     c3.705-1.234,7.475-2.302,11.289-3.192v-12.924c0-5.321,4.323-9.61,9.617-9.61h25.931c5.3,0,9.61,4.289,9.61,9.61v12.365     c3.909,0.764,7.725,1.697,11.395,2.847l6.479-11.221c1.72-2.971,4.917-4.807,8.329-4.807c1.675,0,3.34,0.45,4.771,1.286     l22.48,12.973c4.581,2.662,6.151,8.543,3.521,13.125l-6.202,10.738c2.932,2.533,5.745,5.277,8.389,8.172l11.272-6.488     c1.43-0.84,3.099-1.292,4.772-1.292c3.437,0,6.631,1.834,8.351,4.803l12.969,22.438c2.61,4.588,1.062,10.512-3.51,13.128     l-10.688,6.176c1.244,3.739,2.312,7.542,3.199,11.301h12.948c2.579,0,4.965,1.039,6.787,2.867     c1.805,1.78,2.818,4.209,2.814,6.791v25.884c-0.006,5.329-4.341,9.665-9.604,9.665h-12.369     c-0.762,3.833-1.745,7.643-2.867,11.312l11.199,6.492c4.579,2.663,6.188,8.542,3.511,13.12l-12.967,22.488     c-1.722,2.973-4.918,4.807-8.302,4.807c-1.675,0-3.345-0.45-4.771-1.287l-10.769-6.188c-2.558,2.908-5.262,5.726-8.201,8.391     l6.514,11.226c2.64,4.642,1.065,10.521-3.514,13.134l-22.439,13.008c-1.504,0.846-3.175,1.25-4.827,1.25     c-3.404,0-6.603-1.836-8.291-4.806l-6.198-10.68c-3.655,1.271-7.419,2.335-11.292,3.188v12.968     C820.242,440.903,815.928,445.237,810.632,445.237L810.632,445.237z M760.844,412.833l2.436,0.827     c5.061,1.688,10.279,3.034,15.467,3.895l2.597,0.451v17.62c0,1.839,1.487,3.354,3.354,3.354l25.938,0.006     c1.873,0,3.356-1.52,3.356-3.357v-18.066l2.527-0.479c5.31-1.072,10.449-2.566,15.331-4.339l2.491-0.908l8.786,15.188     c0.89,1.587,3,2.138,4.584,1.223l22.479-12.967c1.583-0.918,2.144-2.979,1.221-4.596l-9.087-15.64l1.961-1.686     c4.021-3.562,7.785-7.386,11.142-11.427l1.68-2.002l15.258,8.789c1.535,0.9,3.674,0.305,4.582-1.23l12.965-22.485     c0.922-1.604,0.354-3.66-1.226-4.581l-15.664-9.021l0.854-2.435c1.678-4.952,2.962-10.144,3.878-15.42l0.455-2.595h17.618     c1.852,0,3.348-1.521,3.349-3.413v-25.932c0.002-0.866-0.366-1.705-0.983-2.367c-0.642-0.622-1.459-0.989-2.361-0.989h-18.069     l-0.499-2.514c-1.033-5.127-2.466-10.31-4.326-15.356l-0.892-2.493l15.171-8.778c1.622-0.92,2.141-2.983,1.222-4.593     l-12.964-22.432c-0.858-1.53-2.996-2.136-4.581-1.226l-15.649,9.02l-1.686-1.916c-3.561-4.033-7.388-7.772-11.406-11.13     l-2.021-1.682l8.763-15.251c0.916-1.602,0.396-3.665-1.229-4.585l-22.438-12.971c-1.526-0.896-3.671-0.304-4.574,1.229     l-9.048,15.641l-2.411-0.833c-4.949-1.676-10.151-2.98-15.49-3.897l-2.599-0.452V196.46c0-1.883-1.51-3.401-3.359-3.401h-25.93     c-1.872,0-3.365,1.519-3.365,3.401v18.027l-2.497,0.521c-5.229,1.015-10.382,2.51-15.39,4.34l-2.456,0.869l-8.753-15.197     c-0.916-1.586-3.041-2.143-4.659-1.222l-22.438,12.97c-0.767,0.451-1.318,1.148-1.535,1.995     c-0.246,0.898-0.137,1.812,0.317,2.586l9.053,15.647l-1.9,1.728c-4.113,3.594-7.864,7.418-11.134,11.38l-1.681,2.05     l-15.249-8.832c-1.535-0.856-3.712-0.303-4.631,1.284l-12.967,22.43c-0.452,0.768-0.561,1.68-0.315,2.529     c0.224,0.896,0.772,1.599,1.574,2.05l15.639,9.021l-0.818,2.433c-1.688,5.016-3.001,10.207-3.912,15.474l-0.449,2.597h-17.609     c-1.845,0-3.364,1.521-3.364,3.364v25.93c0,1.841,1.521,3.359,3.364,3.359h18.056l0.496,2.517     c1.062,5.256,2.5,10.436,4.328,15.349l0.911,2.498l-15.239,8.783c-0.77,0.455-1.317,1.154-1.541,2.046     c-0.22,0.851-0.103,1.761,0.32,2.529l12.964,22.49c0.905,1.525,3.038,2.085,4.617,1.219l15.658-9.06l1.684,1.912     c3.604,4.1,7.43,7.842,11.438,11.14l2,1.682l-8.793,15.253c-0.433,0.813-0.535,1.727-0.321,2.575     c0.244,0.85,0.774,1.594,1.542,2.001l22.506,12.97c1.534,0.905,3.669,0.354,4.538-1.174L760.844,412.833L760.844,412.833z      M796.233,386.421c-38.84,0-70.393-31.58-70.393-70.402c0-38.826,31.553-70.408,70.392-70.408     c38.781,0,70.364,31.583,70.364,70.408C866.597,354.841,835.014,386.421,796.233,386.421L796.233,386.421z M796.233,251.864     c-35.386,0-64.158,28.812-64.158,64.155c0,35.383,28.772,64.149,64.158,64.149c35.361,0,64.135-28.768,64.135-64.149     C860.366,280.676,831.595,251.864,796.233,251.864L796.233,251.864z"/>
		</g>
	</g>
	<g opacity="0.3">
		<path fill="#FFFFFF" d="M937.723,239.484h-12.897c-3.661,0-6.666-3.023-6.666-6.688v-8.333c0-0.61-0.622-1.511-1.225-1.685    l-3.968-1.657c-0.721-0.316-1.852-0.099-2.241,0.229l-5.896,5.939c-2.543,2.513-6.937,2.509-9.417-0.001l-9.15-9.15    c-1.232-1.231-1.968-2.908-1.968-4.721c0.021-1.768,0.734-3.442,1.972-4.674l5.936-5.934c0.42-0.396,0.581-1.472,0.312-2.005    l-1.663-4.025c-0.27-0.76-1.131-1.387-1.734-1.387h-8.381c-3.661,0-6.662-2.979-6.662-6.642v-12.951c0-3.664,3-6.646,6.662-6.646    h8.381c0.604,0,1.47-0.67,1.686-1.218l1.609-3.967c0.373-0.756,0.211-1.834-0.21-2.277l-5.937-5.888    c-1.234-1.229-1.97-2.908-1.97-4.719c0.021-1.769,0.734-3.442,1.974-4.675l9.146-9.15c2.479-2.509,6.877-2.513,9.415-0.001    l5.891,5.894c0.252,0.229,0.767,0.458,1.37,0.458c0.403,0,0.585-0.081,0.703-0.098l3.972-1.669    c0.771-0.29,1.396-1.149,1.396-1.753v-8.38c0-3.666,3.004-6.645,6.666-6.645h12.897c3.668,0,6.675,2.979,6.675,6.645v8.38    c0,0.604,0.644,1.465,1.207,1.675l3.979,1.623c1.176,0.584,1.938,0.124,2.254-0.235l5.934-5.893    c2.498-2.516,6.906-2.513,9.371,0.003l9.146,9.152c1.251,1.228,1.966,2.901,1.966,4.669c0.002,1.811-0.713,3.487-1.969,4.723    l-5.918,5.887c-0.386,0.44-0.604,1.521-0.326,2.055l1.666,3.97c0.285,0.812,1.177,1.436,1.777,1.436h8.329    c3.662,0,6.668,2.979,6.668,6.645v12.951c0,3.663-3.006,6.642-6.668,6.642h-8.329c-0.604,0-1.493,0.624-1.677,1.216l-1.646,3.978    c-0.397,0.752-0.183,1.829,0.207,2.227l5.916,5.936c1.25,1.228,1.967,2.902,1.967,4.669c0.002,1.812-0.713,3.487-1.969,4.722    l-9.147,9.149c-2.461,2.507-6.87,2.513-9.362,0.003l-5.938-5.892c-0.318-0.363-1.508-0.607-2.088-0.361l-3.94,1.664    c-0.769,0.246-1.407,1.147-1.407,1.759v8.332C944.398,236.46,941.39,239.484,937.723,239.484L937.723,239.484z M912.092,214.69    c1.229,0,2.438,0.245,3.464,0.77l3.562,1.458c2.958,0.986,5.294,4.263,5.294,7.546v8.332c0,0.227,0.164,0.436,0.412,0.436h12.898    c0.252,0,0.423-0.211,0.423-0.436v-8.332c0-3.282,2.381-6.56,5.479-7.621l3.555-1.466c0.863-0.442,2.058-0.688,3.279-0.688    c2.185,0,4.352,0.848,5.802,2.292l5.881,5.888c0.108,0.083,0.245,0.135,0.302,0.135l9.425-9.285l-0.002-0.001l0.002-0.545    l-5.918-5.937c-2.32-2.309-2.944-6.323-1.462-9.24l1.433-3.583c1.005-2.907,4.256-5.271,7.567-5.271h8.329    c0.246,0,0.412-0.211,0.412-0.389v-12.951c0-0.223-0.166-0.391-0.412-0.391h-8.329c-3.312,0-6.613-2.362-7.62-5.49l-1.487-3.577    c-1.373-2.744-0.749-6.714,1.566-9.021l5.921-5.938l-0.002-0.002l0.002-0.542l-9.147-9.155c-0.332-0.134-0.468-0.08-0.577,0.003    l-5.882,5.892c-2.248,2.266-6.385,2.956-9.265,1.517l-3.561-1.463c-2.899-0.974-5.286-4.25-5.286-7.539v-8.38    c0-0.177-0.177-0.392-0.423-0.392h-12.899c-0.229,0-0.412,0.167-0.412,0.392v8.38c0,3.29-2.344,6.566-5.494,7.619l-3.529,1.465    c-0.856,0.443-2.065,0.689-3.297,0.689c-2.185,0-4.354-0.848-5.797-2.292l-5.887-5.891h-0.57l-9.148,9.155l0.001,0.001    l-0.001,0.542l5.938,5.892c2.3,2.353,2.926,6.322,1.493,9.284l-1.479,3.58c-0.962,2.912-4.263,5.271-7.522,5.271h-8.381    c-0.224,0-0.407,0.17-0.407,0.391v12.951c0,0.176,0.188,0.389,0.407,0.389h8.381c3.263,0,6.562,2.359,7.62,5.483l1.441,3.593    c1.375,2.739,0.75,6.71-1.553,9.017l-5.938,5.938l0.001,0.001l-0.001,0.545l9.149,9.15c0.354,0.134,0.466,0.081,0.573-0.002    l5.89-5.889C907.733,215.539,909.905,214.69,912.092,214.69L912.092,214.69z M931.275,202.429    c-11.134,0-20.149-9.021-20.149-20.151c0-11.131,9.021-20.195,20.149-20.195s20.151,9.064,20.151,20.195    C951.427,193.407,942.406,202.429,931.275,202.429L931.275,202.429z M931.275,168.335c-7.646,0-13.896,6.249-13.896,13.941    c0,7.647,6.25,13.898,13.896,13.898c7.668,0,13.917-6.251,13.917-13.898C945.192,174.584,938.944,168.335,931.275,168.335    L931.275,168.335z"/>
	</g>
	<path opacity="0.3" fill="#FFFFFF" d="M868.052,142.535h-4.681c-1.072,0-2.27-0.839-2.589-1.845   l-0.873-2.123c-0.489-0.979-0.24-2.368,0.521-3.133l3.27-3.284c0.767-0.76,0.767-2.038,0-2.8l-5.057-5.059   c-0.768-0.765-2.021-0.765-2.783,0l-3.306,3.281c-0.765,0.765-2.149,0.996-3.113,0.482l-2.099-0.852   c-1.046-0.321-1.861-1.518-1.861-2.59v-4.653c0-1.07-0.883-1.93-1.979-1.93h-7.181c-1.112,0-1.977,0.858-1.977,1.93v4.653   c0,1.073-0.854,2.27-1.884,2.59l-2.081,0.852c-0.979,0.514-2.394,0.282-3.15-0.482l-3.264-3.281c-0.765-0.765-1.996-0.765-2.798,0   l-5.082,5.059c-0.768,0.762-0.768,2.04,0,2.8l3.302,3.284c0.766,0.765,0.975,2.153,0.505,3.133l-0.865,2.123   c-0.347,1.005-1.521,1.845-2.593,1.845H811.8c-1.068,0-1.976,0.856-1.976,1.975v7.178c0,1.074,0.903,1.975,1.976,1.975h4.635   c1.072,0,2.246,0.836,2.593,1.844l0.865,2.123c0.47,0.935,0.261,2.369-0.505,3.133l-3.302,3.285c-0.768,0.763-0.768,1.995,0,2.756   l5.082,5.103c0.802,0.764,2.033,0.764,2.798,0l3.264-3.284c0.762-0.764,2.176-0.992,3.15-0.524l2.081,0.851   c1.027,0.367,1.884,1.518,1.884,2.591v4.65c0,1.12,0.859,1.975,1.977,1.975h7.181c1.1,0,1.979-0.854,1.979-1.975v-4.65   c0-1.073,0.815-2.225,1.861-2.591l2.099-0.851c0.964-0.467,2.354-0.238,3.113,0.524l3.306,3.284c0.766,0.764,2.02,0.764,2.783,0   l5.057-5.103c0.767-0.761,0.767-1.993,0-2.756l-3.27-3.285c-0.761-0.764-1.01-2.198-0.521-3.133l0.873-2.123   c0.319-1.007,1.517-1.844,2.589-1.844h4.681c1.022,0,1.927-0.9,1.927-1.975v-7.178   C869.976,143.391,869.074,142.535,868.052,142.535z M839.892,157.564c-5.21,0-9.47-4.259-9.47-9.466c0-5.254,4.26-9.514,9.47-9.514   c5.271,0,9.489,4.26,9.489,9.514C849.383,153.306,845.164,157.564,839.892,157.564z"/>
	<path fill="#FFFFFF" d="M619.061,193.347c0-28.814-23.352-52.169-52.175-52.169c-6.183,0-12.123,1.14-17.607,3.133   c-6.337-26.918-30.438-46.986-59.27-46.986c-33.19,0-60.195,26.625-60.826,59.713c-2.963-0.608-6.011-0.968-9.131-0.968   c-24.662,0-44.708,20.037-44.708,44.751c0,20.214,13.434,37.24,31.815,42.799c3.722,1.222,7.632,1.906,11.802,1.906H569.49   c4.582,0,9.009-0.903,13.101-2.432C603.723,236.458,619.061,216.693,619.061,193.347z"/>
	<path fill="#99D5DC" d="M702.762,165.068c0-25.399-20.604-46.008-46.023-46.008c-5.465,0-10.686,0.997-15.531,2.756   c-5.587-23.729-26.854-41.433-52.274-41.433c-29.295,0-53.147,23.497-53.701,52.648c-2.598-0.488-5.315-0.79-8.018-0.79   c-21.806,0-39.493,17.633-39.493,39.445c0,17.843,11.881,32.877,28.078,37.763c3.271,1.071,6.768,1.68,10.42,1.68h132.817   c4.054,0,7.953-0.771,11.538-2.135C689.23,203.13,702.762,185.67,702.762,165.068z"/>
	<g>
		<g>
			<path fill="#B7C9CB" d="M416.832,760.453c-7.314,29.82-14.629,59.678-21.896,89.562c68.134,0,136.269,0,204.442,0     c-7.312-29.886-14.625-59.739-21.897-89.562C523.933,760.453,470.384,760.453,416.832,760.453z"/>
			<path fill="#E8E8E8" d="M611.99,848.442H382.281c-5.856,0-10.588,5.539-10.588,12.396v4.611h250.881v-4.611     C622.573,853.981,617.844,848.442,611.99,848.442z"/>
			<path fill="#E8E8E8" d="M151.68,725.575v49.37c0,9.48,7.696,17.174,17.222,17.174h656.511c9.476,0,17.195-7.689,17.195-17.174     v-49.37H151.68z"/>
			<path fill="#174F78" d="M842.608,725.575v-417.94c0-9.526-7.724-17.228-17.195-17.228H168.902     c-9.522,0-17.222,7.699-17.222,17.228v417.94H842.608L842.608,725.575z"/>
			<rect x="179.981" y="317.312" fill="#FFFFFF" width="634.311" height="379.701"/>
		</g>
		<g>
			<rect x="250.151" y="634.453" fill="#A4C501" width="29.062" height="38.751"/>
			<rect x="308.275" y="599.589" fill="#A4C501" width="29.062" height="73.615"/>
			<rect x="366.4" y="572.879" fill="#A4C501" width="29.019" height="100.325"/>
			<rect x="424.479" y="597.051" fill="#A4C501" width="29.062" height="76.153"/>
			<rect x="482.601" y="510.481" fill="#A4C501" width="29.062" height="162.723"/>
			<rect x="540.724" y="539.544" fill="#A4C501" width="29.062" height="133.66"/>
			<rect x="598.846" y="479.502" fill="#A4C501" width="29.062" height="193.702"/>
			<rect x="656.971" y="425.26" fill="#A4C501" width="29.059" height="247.944"/>
			<rect x="715.069" y="369.055" fill="#A4C501" width="29.049" height="304.148"/>
		</g>
		<g>
			<rect x="222.081" y="361.568" fill="#0D65A2" width="118.55" height="11.292"/>
			<rect x="222.081" y="390.26" fill="#99D5DC" width="214.272" height="6.944"/>
			<rect x="222.081" y="411.606" fill="#99D5DC" width="182.092" height="6.941"/>
			<rect x="222.081" y="432.906" fill="#99D5DC" width="201.774" height="6.943"/>
			<rect x="222.081" y="454.254" fill="#99D5DC" width="157.014" height="6.944"/>
			<path fill="#0D65A2" d="M222.081,481.276v20.292h69.349v-20.292H222.081z M279.818,494.912H233.69v-6.939h46.128V494.912z"/>
		</g>
	</g>
	<g>
		<path fill="#99D5DC" d="M219.492,631.641c-1.008,0-2.002-0.491-2.608-1.408c-0.969-1.441-0.53-3.403,0.919-4.329l165.613-107.271    c0.938-0.617,2.217-0.68,3.214-0.133l49.506,27.75l60.891-95.428c0.464-0.753,1.227-1.23,2.116-1.383    c0.849-0.155,1.751,0.068,2.442,0.604l52.116,40.074l171.725-148.08c1.29-1.138,3.271-0.989,4.395,0.313    c1.147,1.302,1,3.278-0.313,4.417L555.89,496.524c-1.135,0.979-2.801,1.002-3.958,0.136l-51.475-39.589l-60.654,95    c-0.858,1.426-2.688,1.884-4.136,1.058L385.195,524.9L221.176,631.15C220.646,631.485,220.09,631.641,219.492,631.641    L219.492,631.641z"/>
	</g>
	<path fill="#0D65A2" d="M236.053,627.185c0,6.732-5.434,12.195-12.203,12.195c-6.721,0-12.15-5.463-12.15-12.195   c0-6.764,5.434-12.188,12.15-12.188C230.619,614.995,236.053,620.423,236.053,627.185z"/>
	<path fill="#0D65A2" d="M395.413,522.519c0,6.727-5.438,12.155-12.201,12.155c-6.723,0-12.156-5.433-12.156-12.155   c0-6.768,5.437-12.196,12.156-12.196C389.977,510.32,395.413,515.753,395.413,522.519z"/>
	<path fill="#0D65A2" d="M449.046,549.6c0,6.726-5.438,12.156-12.157,12.156c-6.767,0-12.2-5.435-12.2-12.156   c0-6.767,5.437-12.199,12.2-12.199C443.61,537.398,449.046,542.835,449.046,549.6z"/>
	<path fill="#0D65A2" d="M512.586,453.254c0,6.724-5.436,12.157-12.202,12.157c-6.721,0-12.155-5.437-12.155-12.157   c0-6.766,5.438-12.199,12.155-12.199C507.152,441.054,512.586,446.488,512.586,453.254z"/>
	<path fill="#0D65A2" d="M568.331,495.44c0,6.721-5.479,12.154-12.2,12.154c-6.723,0-12.201-5.437-12.201-12.154   c0-6.77,5.479-12.201,12.201-12.201C562.853,483.239,568.331,488.674,568.331,495.44z"/>
	<path fill="#0D65A2" d="M739.669,344.402c0,6.722-5.479,12.201-12.202,12.201c-6.722,0-12.201-5.479-12.201-12.201   c0-6.723,5.479-12.201,12.201-12.201C734.192,332.201,739.669,337.68,739.669,344.402z"/>
	<g>
		<path fill="none" d="M839.014,598.731"/>
	</g>
	<g>
		<path fill="#DE3F18" d="M978.379,738.921c-0.012,0.007-0.064,0.014-0.073,0.05c-11.264,11.227-29.529,11.177-40.756-0.1    l-87.904-88.331c-11.217-11.277-11.211-29.493,0.021-40.72c0.009-0.043,0.034-0.05,0.044-0.069    c11.307-11.225,29.552-11.198,40.797,0.089l87.908,88.338C989.634,709.471,989.606,727.667,978.379,738.921L978.379,738.921z"/>
		<path fill="#FD6120" d="M965.8,738.36c-4.321,4.31-11.399,4.299-15.729-0.06l-87.907-88.337    c-4.341-4.366-4.319-11.429,0.007-15.765c4.369-4.367,11.47-4.359,15.816,0.021l87.904,88.318    c4.322,4.381,4.315,11.438-0.006,15.771L965.8,738.36z"/>
		<path fill="#103754" d="M837.48,597.17h-0.002c-21.347,21.376-49.729,33.099-79.888,33.077    c-62.145-0.132-112.583-50.773-112.492-112.913c0.065-29.95,11.793-58.201,33.067-79.431    c21.352-21.361,49.693-33.089,79.846-33.069c30.062,0.066,58.32,11.855,79.58,33.211c21.282,21.315,32.971,49.641,32.928,79.705    C870.476,547.736,858.727,575.935,837.48,597.17L837.48,597.17z"/>
		<g>
			<path fill="#FFFFFF" d="M698.547,458.271c-15.824,15.823-24.55,36.829-24.603,59.129c-0.082,46.24,37.462,83.931,83.691,84     c22.438,0.024,43.545-8.695,59.464-24.604l0.003,0.004c15.822-15.815,24.515-36.812,24.596-59.107     c0.038-22.365-8.684-43.397-24.512-59.291c-15.854-15.896-36.873-24.667-59.23-24.727     C735.56,433.658,714.436,442.376,698.547,458.271L698.547,458.271z"/>
			<path fill="#FFFFFF" d="M817.188,458.4c-15.854-15.896-36.873-24.667-59.23-24.727c-6.282-0.005-12.5,0.707-18.497,2.021     c-9.118,4.151-17.547,9.916-24.871,17.24c-15.792,15.821-24.533,36.825-24.566,59.131c-0.099,46.201,37.451,83.894,83.685,83.964     c6.319,0.042,12.511-0.673,18.542-2.026c9.119-4.114,17.554-9.917,24.854-17.208l0.004,0.004     c15.821-15.815,24.515-36.812,24.597-59.107C841.739,495.326,833.017,474.294,817.188,458.4z"/>
		</g>
		<g>
			<path fill="#174F78" d="M757.598,623.845c-28.35-0.057-55.014-11.146-75.062-31.289c-20.058-20.138-31.107-46.832-31.042-75.218     c0.06-28.279,11.135-54.895,31.149-74.957c20.126-20.081,46.79-31.152,75.135-31.152c0.085,0,0.141,0,0.224,0l-0.037,14.178     c-0.078,0-0.104,0-0.186,0c-24.559,0-47.668,9.618-65.081,27.028c-17.393,17.354-26.979,40.436-27.031,64.955     c-0.021,24.544,9.531,47.697,26.898,65.161c17.399,17.427,40.506,27.071,65.064,27.125L757.598,623.845L757.598,623.845z"/>
		</g>
		<g>
			<g>
				<g>
					<g>
						<g>
							<defs>
								<path id="SVGID_1_" d="M698.547,458.271c-15.824,15.823-24.55,36.829-24.603,59.129c-0.082,46.24,37.462,83.931,83.691,84          c22.438,0.024,43.545-8.695,59.464-24.604l0.003,0.004c15.822-15.815,24.515-36.812,24.596-59.107          c0.038-22.365-8.684-43.397-24.512-59.291c-15.854-15.896-36.873-24.667-59.23-24.727          C735.56,433.658,714.436,442.376,698.547,458.271L698.547,458.271z"/>
							</defs>
							<clipPath id="SVGID_2_">
								<use xlink:href="#SVGID_1_"/>
							</clipPath>
							<g clip-path="url(#SVGID_2_)">
								<rect x="645.605" y="312.737" fill="#8EAB00" width="49.258" height="420.188"/>
								<rect x="722.759" y="219.734" fill="#8EAB00" width="49.219" height="515.399"/>
							</g>
						</g>
					</g>
				</g>
			</g>
		</g>
		<g opacity="0.2">
			<path fill="#3AA9B5" d="M698.547,458.271c-15.824,15.823-24.55,36.829-24.603,59.129c-0.082,46.24,37.462,83.931,83.691,84     c22.438,0.024,43.545-8.695,59.464-24.604l0.003,0.004c15.822-15.815,24.515-36.812,24.596-59.107     c0.038-22.365-8.684-43.397-24.512-59.291c-15.854-15.896-36.873-24.666-59.23-24.727     C735.56,433.658,714.436,442.376,698.547,458.271L698.547,458.271z"/>
			<path fill="#9EE2DA" d="M817.188,458.4c-15.854-15.896-36.873-24.666-59.23-24.727c-6.282-0.005-12.5,0.707-18.497,2.021     c-9.118,4.151-17.547,9.916-24.871,17.239c-15.792,15.821-24.533,36.826-24.566,59.13c-0.099,46.202,37.451,83.895,83.685,83.965     c6.319,0.042,12.511-0.674,18.542-2.026c9.119-4.115,17.554-9.917,24.854-17.208l0.004,0.004     c15.821-15.815,24.515-36.812,24.597-59.107C841.739,495.326,833.017,474.294,817.188,458.4z"/>
		</g>
		<g>
			<path fill="#103754" d="M861.022,621.621c-5.626,5.611-14.771,5.605-20.389-0.051l-17.972-18.521     c-5.609-5.65-5.598-14.746,0.041-20.361c0.007-0.037,0.01-0.041,0.038-0.047c5.62-5.611,14.731-5.604,20.353,0.058l17.946,18.515     c5.631,5.651,5.604,14.75-0.012,20.364C861.03,621.578,861.022,621.619,861.022,621.621z"/>
		</g>
	</g>
	<g>
		<g>
			<g>
				<path fill="#174F78" d="M327.054,593.255H103.851c-9,0-16.262,7.308-16.262,16.305v293.828c0,8.99,7.262,16.229,16.262,16.229      h223.203c8.989,0,16.254-7.237,16.254-16.229v-293.83C343.307,600.561,336.043,593.255,327.054,593.255z"/>
				<path fill="#FFFFFF" d="M215.45,911.35c-3.6,0-6.557-2.933-6.557-6.555c0-3.646,2.958-6.549,6.557-6.549      c3.595,0,6.552,2.903,6.552,6.549C222.002,908.419,219.044,911.35,215.45,911.35z"/>
				<rect x="116.592" y="624.817" fill="#FFFFFF" width="197.712" height="263.254"/>
			</g>
		</g>
		<g>
			<g>
				<path fill="#8EAB00" d="M240.099,764.485c-1.171,3.695-3.133,7.014-5.669,9.811l19.451,27.198      c9.84-8.52,16.877-20.114,19.552-33.305L240.099,764.485z"/>
				<path fill="#A4C501" d="M220.25,730.047c11.354,2.343,19.916,11.902,21.054,23.616l33.271,3.698      c0.001-0.396,0.065-0.756,0.065-1.153c0-31.191-23.89-56.777-54.395-59.527L220.25,730.047L220.25,730.047z"/>
				<path fill="#0D65A2" d="M195.083,738.289c3.731-4.08,8.674-7.104,14.271-8.242v-33.366c-17.722,1.591-33.2,10.943-43.049,24.629      L195.083,738.289z"/>
				<path fill="#53AEE5" d="M225.596,780.652c-3.293,1.477-6.941,2.297-10.771,2.297c-14.787,0-26.765-11.957-26.765-26.741      c0-3.008,0.607-5.823,1.524-8.553L160.756,730.7c-3.667,7.729-5.792,16.354-5.792,25.508c0,33.079,26.777,59.84,59.857,59.84      c11.009,0,21.307-3.047,30.21-8.268L225.596,780.652z"/>
			</g>
			<g>
				<rect x="216.817" y="851.242" fill="#B7C9CB" width="56.979" height="5.044"/>
				<rect x="141.291" y="835.062" fill="#B7C9CB" width="56.983" height="5.047"/>
				<rect x="129.687" y="684.844" fill="#B7C9CB" width="56.983" height="5.047"/>
				<g>
					<polygon fill="#B7C9CB" points="198.366,840.575 195.979,839.969 201.253,818.908 203.685,819.517      "/>
				</g>
				<g>
					<polygon fill="#B7C9CB" points="191.873,697.505 184.312,686.104 186.377,684.725 193.941,696.099      "/>
				</g>
				<rect x="243.735" y="680.505" fill="#B7C9CB" width="56.981" height="5.044"/>
				<g>
					<polygon fill="#B7C9CB" points="237.121,696.625 234.986,695.329 243.97,680.419 246.105,681.688      "/>
				</g>
				<g>
					<polygon fill="#B7C9CB" points="271.281,852.607 258.925,800.432 261.359,799.839 273.714,852.012      "/>
				</g>
			</g>
		</g>
	</g>
</g>
</svg>
