<?xml version="1.0" encoding="iso-8859-1"?>
<!-- Generator: Adobe Illustrator 19.0.0, SVG Export Plug-In . SVG Version: 6.00 Build 0)  -->
<svg version="1.1" id="Layer_1" xmlns="http://www.w3.org/2000/svg" xmlns:xlink="http://www.w3.org/1999/xlink" x="0px" y="0px"
	 viewBox="0 0 262.727 262.727" style="enable-background:new 0 0 262.727 262.727;" xml:space="preserve">
<g>
	<g>
		<g id="XMLID_29_">
			<g>
				<polygon style="fill:#FEDE94;" points="193.393,167.632 223.991,245.97 162.794,245.97 				"/>
				<polygon style="fill:#AAE1E9;" points="144.307,59.37 170.997,180.256 145.333,245.97 103.136,245.97 				"/>
				<polygon style="fill:#F47C6D;" points="69.302,130.787 95.319,205.856 86.444,245.97 29.445,245.97 				"/>
				<path style="fill:#2D213F;" d="M254.589,246.418c4.486,0,8.138,3.653,8.138,8.138c0,4.518-3.653,8.17-8.138,8.17H8.138
					c-4.486,0-8.138-3.653-8.138-8.17V8.138C0,3.621,3.653,0,8.138,0c4.518,0,8.17,3.621,8.17,8.138v226.009l45.304-130.915
					c1.153-3.3,4.229-5.479,7.69-5.479c3.492,0,6.568,2.179,7.722,5.479l24.991,72.218l34.347-155.65
					c0.801-3.717,4.133-6.376,7.946-6.376s7.145,2.659,7.946,6.376l29.381,133.158l4.165-10.669c1.218-3.14,4.229-5.19,7.593-5.19
					s6.376,2.051,7.593,5.19l40.659,104.13h12.944V246.418z M223.991,245.97l-30.598-78.337l-30.598,78.337H223.991z
					 M170.997,180.256L144.307,59.37l-41.171,186.6h42.196L170.997,180.256z M95.319,205.856l-26.016-75.069L29.445,245.97h56.999
					L95.319,205.856z"/>
			</g>
		</g>
	</g>
</g>
<g>
</g>
<g>
</g>
<g>
</g>
<g>
</g>
<g>
</g>
<g>
</g>
<g>
</g>
<g>
</g>
<g>
</g>
<g>
</g>
<g>
</g>
<g>
</g>
<g>
</g>
<g>
</g>
<g>
</g>
</svg>
